<svg width="142" height="40" viewBox="0 0 142 40" fill="none" xmlns="http://www.w3.org/2000/svg">
<g filter="url(#filter0_d_328_470)">
<path d="M53.36 26.312C48.368 26.312 44.6 22.424 44.6 17.624C44.6 12.8 48.176 8.888 53.36 8.888C56.096 8.888 57.992 9.728 59.504 11.528L57.128 13.592C56.12 12.536 54.872 12.008 53.36 12.008C50.12 12.008 48.08 14.552 48.08 17.624C48.08 20.696 50.12 23.192 53.432 23.192C55.064 23.192 56.288 22.64 57.272 21.56L59.72 23.648C58.448 25.184 56.288 26.312 53.36 26.312ZM65.8355 26.312C62.4035 26.312 59.6675 23.408 59.6675 19.808C59.6675 16.208 62.4035 13.256 65.8355 13.256C67.9955 13.256 69.1235 14.144 69.7955 15.488V13.52H73.0115V26H69.8675V23.96C69.1955 25.376 68.0675 26.312 65.8355 26.312ZM62.9075 19.784C62.9075 21.68 64.2995 23.384 66.3635 23.384C68.4995 23.384 69.8675 21.752 69.8675 19.808C69.8675 17.864 68.4995 16.184 66.3635 16.184C64.2995 16.184 62.9075 17.84 62.9075 19.784ZM74.9366 26V13.52H78.1286V15.344C78.7766 13.952 80.0246 13.232 81.9446 13.232C84.6326 13.232 86.6966 15.224 86.6966 18.368V26H83.4566V19.16C83.4566 17 82.3766 16.064 80.7686 16.064C79.4006 16.064 78.1766 17 78.1766 19.16V26H74.9366ZM91.6683 26L86.4603 13.52H90.3003L92.7963 20.648C93.0123 21.248 93.2043 21.992 93.3243 22.64C93.4443 21.992 93.6363 21.248 93.8523 20.648L96.3483 13.52H100.116L94.9323 26H91.6683ZM105.609 26.312C102.177 26.312 99.4409 23.408 99.4409 19.808C99.4409 16.208 102.177 13.256 105.609 13.256C107.769 13.256 108.897 14.144 109.569 15.488V13.52H112.785V26H109.641V23.96C108.969 25.376 107.841 26.312 105.609 26.312ZM102.681 19.784C102.681 21.68 104.073 23.384 106.137 23.384C108.273 23.384 109.641 21.752 109.641 19.808C109.641 17.864 108.273 16.184 106.137 16.184C104.073 16.184 102.681 17.84 102.681 19.784ZM118.982 26.312C116.87 26.312 115.166 25.592 113.798 24.128L115.982 22.136C116.894 23.168 117.854 23.672 118.91 23.672C120.014 23.672 120.638 23.12 120.638 22.376C120.638 21.728 120.326 21.368 118.358 20.912C115.022 20.12 114.518 18.608 114.518 17.024C114.518 14.84 116.246 13.208 119.174 13.208C121.19 13.208 122.534 13.712 123.806 15.368L121.454 17.168C120.854 16.208 120.086 15.824 119.246 15.824C118.358 15.824 117.686 16.16 117.686 16.928C117.686 17.36 117.878 17.744 119.366 18.128C122.99 19.064 123.83 20.408 123.83 22.28C123.83 24.584 121.742 26.312 118.982 26.312ZM125.093 26V13.52H128.333V26H125.093ZM124.757 10.568C124.757 9.536 125.597 8.672 126.701 8.672C127.829 8.672 128.645 9.536 128.645 10.568C128.645 11.648 127.829 12.488 126.701 12.488C125.597 12.488 124.757 11.624 124.757 10.568ZM134.977 26C132.505 26 131.161 24.848 131.161 22.136V16.28H129.409V13.52H131.161V11L134.401 10.664V13.52H137.041V16.28H134.401V21.968C134.401 22.76 134.785 23.12 135.409 23.12H136.753V26H134.977Z" fill="url(#paint0_linear_328_470)"/>
<rect x="7.15527" y="16.2251" width="18.0282" height="18.0282" transform="rotate(-45 7.15527 16.2251)" fill="#D9D9D9" fill-opacity="0.5"/>
<rect x="4" y="15.3237" width="31.5493" height="2.25352" fill="#D9D9D9"/>
<rect x="18.873" y="32" width="32" height="1.80282" transform="rotate(-90 18.873 32)" fill="#D9D9D9"/>
</g>
<defs>
<filter id="filter0_d_328_470" x="0" y="0" width="142" height="40" filterUnits="userSpaceOnUse" color-interpolation-filters="sRGB">
<feFlood flood-opacity="0" result="BackgroundImageFix"/>
<feColorMatrix in="SourceAlpha" type="matrix" values="0 0 0 0 0 0 0 0 0 0 0 0 0 0 0 0 0 0 127 0" result="hardAlpha"/>
<feOffset dy="4"/>
<feGaussianBlur stdDeviation="2"/>
<feComposite in2="hardAlpha" operator="out"/>
<feColorMatrix type="matrix" values="0 0 0 0 0 0 0 0 0 0 0 0 0 0 0 0 0 0 0.25 0"/>
<feBlend mode="normal" in2="BackgroundImageFix" result="effect1_dropShadow_328_470"/>
<feBlend mode="normal" in="SourceGraphic" in2="effect1_dropShadow_328_470" result="shape"/>
</filter>
<linearGradient id="paint0_linear_328_470" x1="91" y1="2" x2="91" y2="31" gradientUnits="userSpaceOnUse">
<stop stop-color="white"/>
<stop offset="1" stop-color="#999999"/>
</linearGradient>
</defs>
</svg>
