<svg width="94" height="19" viewBox="0 0 94 19" fill="none" xmlns="http://www.w3.org/2000/svg">
<path d="M9.36 18.312C4.368 18.312 0.6 14.424 0.6 9.624C0.6 4.8 4.176 0.887999 9.36 0.887999C12.096 0.887999 13.992 1.728 15.504 3.528L13.128 5.592C12.12 4.536 10.872 4.008 9.36 4.008C6.12 4.008 4.08 6.552 4.08 9.624C4.08 12.696 6.12 15.192 9.432 15.192C11.064 15.192 12.288 14.64 13.272 13.56L15.72 15.648C14.448 17.184 12.288 18.312 9.36 18.312ZM21.8355 18.312C18.4035 18.312 15.6675 15.408 15.6675 11.808C15.6675 8.208 18.4035 5.256 21.8355 5.256C23.9955 5.256 25.1235 6.144 25.7955 7.488V5.52H29.0115V18H25.8675V15.96C25.1955 17.376 24.0675 18.312 21.8355 18.312ZM18.9075 11.784C18.9075 13.68 20.2995 15.384 22.3635 15.384C24.4995 15.384 25.8675 13.752 25.8675 11.808C25.8675 9.864 24.4995 8.184 22.3635 8.184C20.2995 8.184 18.9075 9.84 18.9075 11.784ZM30.9366 18V5.52H34.1286V7.344C34.7766 5.952 36.0246 5.232 37.9446 5.232C40.6326 5.232 42.6966 7.224 42.6966 10.368V18H39.4566V11.16C39.4566 9 38.3766 8.064 36.7686 8.064C35.4006 8.064 34.1766 9 34.1766 11.16V18H30.9366ZM47.6683 18L42.4603 5.52H46.3003L48.7963 12.648C49.0123 13.248 49.2043 13.992 49.3243 14.64C49.4443 13.992 49.6363 13.248 49.8523 12.648L52.3483 5.52H56.1163L50.9323 18H47.6683ZM61.6089 18.312C58.1769 18.312 55.4409 15.408 55.4409 11.808C55.4409 8.208 58.1769 5.256 61.6089 5.256C63.7689 5.256 64.8969 6.144 65.5689 7.488V5.52H68.7849V18H65.6409V15.96C64.9689 17.376 63.8409 18.312 61.6089 18.312ZM58.6809 11.784C58.6809 13.68 60.0729 15.384 62.1369 15.384C64.2729 15.384 65.6409 13.752 65.6409 11.808C65.6409 9.864 64.2729 8.184 62.1369 8.184C60.0729 8.184 58.6809 9.84 58.6809 11.784ZM74.982 18.312C72.87 18.312 71.166 17.592 69.798 16.128L71.982 14.136C72.894 15.168 73.854 15.672 74.91 15.672C76.014 15.672 76.638 15.12 76.638 14.376C76.638 13.728 76.326 13.368 74.358 12.912C71.022 12.12 70.518 10.608 70.518 9.024C70.518 6.84 72.246 5.208 75.174 5.208C77.19 5.208 78.534 5.712 79.806 7.368L77.454 9.168C76.854 8.208 76.086 7.824 75.246 7.824C74.358 7.824 73.686 8.16 73.686 8.928C73.686 9.36 73.878 9.744 75.366 10.128C78.99 11.064 79.83 12.408 79.83 14.28C79.83 16.584 77.742 18.312 74.982 18.312ZM81.0928 18V5.52H84.3328V18H81.0928ZM80.7568 2.568C80.7568 1.536 81.5968 0.671999 82.7008 0.671999C83.8288 0.671999 84.6448 1.536 84.6448 2.568C84.6448 3.648 83.8288 4.488 82.7008 4.488C81.5968 4.488 80.7568 3.624 80.7568 2.568ZM90.9771 18C88.5051 18 87.1611 16.848 87.1611 14.136V8.28H85.4091V5.52H87.1611V3L90.4011 2.664V5.52H93.0411V8.28H90.4011V13.968C90.4011 14.76 90.7851 15.12 91.4091 15.12H92.7531V18H90.9771Z" fill="url(#paint0_linear_138_69)"/>
<defs>
<linearGradient id="paint0_linear_138_69" x1="47" y1="-6" x2="47" y2="23" gradientUnits="userSpaceOnUse">
<stop stop-color="#EEEEEC"/>
<stop offset="1" stop-color="#B5B3AD"/>
</linearGradient>
</defs>
</svg>
