<svg width="134" height="32" viewBox="0 0 134 32" fill="none" xmlns="http://www.w3.org/2000/svg">
<path d="M49.36 26.312C44.368 26.312 40.6 22.424 40.6 17.624C40.6 12.8 44.176 8.888 49.36 8.888C52.096 8.888 53.992 9.728 55.504 11.528L53.128 13.592C52.12 12.536 50.872 12.008 49.36 12.008C46.12 12.008 44.08 14.552 44.08 17.624C44.08 20.696 46.12 23.192 49.432 23.192C51.064 23.192 52.288 22.64 53.272 21.56L55.72 23.648C54.448 25.184 52.288 26.312 49.36 26.312ZM61.8355 26.312C58.4035 26.312 55.6675 23.408 55.6675 19.808C55.6675 16.208 58.4035 13.256 61.8355 13.256C63.9955 13.256 65.1235 14.144 65.7955 15.488V13.52H69.0115V26H65.8675V23.96C65.1955 25.376 64.0675 26.312 61.8355 26.312ZM58.9075 19.784C58.9075 21.68 60.2995 23.384 62.3635 23.384C64.4995 23.384 65.8675 21.752 65.8675 19.808C65.8675 17.864 64.4995 16.184 62.3635 16.184C60.2995 16.184 58.9075 17.84 58.9075 19.784ZM70.9366 26V13.52H74.1286V15.344C74.7766 13.952 76.0246 13.232 77.9446 13.232C80.6326 13.232 82.6966 15.224 82.6966 18.368V26H79.4566V19.16C79.4566 17 78.3766 16.064 76.7686 16.064C75.4006 16.064 74.1766 17 74.1766 19.16V26H70.9366ZM87.6683 26L82.4603 13.52H86.3003L88.7963 20.648C89.0123 21.248 89.2043 21.992 89.3243 22.64C89.4443 21.992 89.6363 21.248 89.8523 20.648L92.3483 13.52H96.1163L90.9323 26H87.6683ZM101.609 26.312C98.1769 26.312 95.4409 23.408 95.4409 19.808C95.4409 16.208 98.1769 13.256 101.609 13.256C103.769 13.256 104.897 14.144 105.569 15.488V13.52H108.785V26H105.641V23.96C104.969 25.376 103.841 26.312 101.609 26.312ZM98.6809 19.784C98.6809 21.68 100.073 23.384 102.137 23.384C104.273 23.384 105.641 21.752 105.641 19.808C105.641 17.864 104.273 16.184 102.137 16.184C100.073 16.184 98.6809 17.84 98.6809 19.784ZM114.982 26.312C112.87 26.312 111.166 25.592 109.798 24.128L111.982 22.136C112.894 23.168 113.854 23.672 114.91 23.672C116.014 23.672 116.638 23.12 116.638 22.376C116.638 21.728 116.326 21.368 114.358 20.912C111.022 20.12 110.518 18.608 110.518 17.024C110.518 14.84 112.246 13.208 115.174 13.208C117.19 13.208 118.534 13.712 119.806 15.368L117.454 17.168C116.854 16.208 116.086 15.824 115.246 15.824C114.358 15.824 113.686 16.16 113.686 16.928C113.686 17.36 113.878 17.744 115.366 18.128C118.99 19.064 119.83 20.408 119.83 22.28C119.83 24.584 117.742 26.312 114.982 26.312ZM121.093 26V13.52H124.333V26H121.093ZM120.757 10.568C120.757 9.536 121.597 8.672 122.701 8.672C123.829 8.672 124.645 9.536 124.645 10.568C124.645 11.648 123.829 12.488 122.701 12.488C121.597 12.488 120.757 11.624 120.757 10.568ZM130.977 26C128.505 26 127.161 24.848 127.161 22.136V16.28H125.409V13.52H127.161V11L130.401 10.664V13.52H133.041V16.28H130.401V21.968C130.401 22.76 130.785 23.12 131.409 23.12H132.753V26H130.977Z" fill="url(#paint0_linear_328_470)"/>
<rect x="3.15527" y="16.2251" width="18.0282" height="18.0282" transform="rotate(-45 3.15527 16.2251)" fill="#D9D9D9" fill-opacity="0.5"/>
<rect y="15.3237" width="31.5493" height="2.25352" fill="#D9D9D9"/>
<rect x="14.873" y="32" width="32" height="1.80282" transform="rotate(-90 14.873 32)" fill="#D9D9D9"/>
<defs>
<linearGradient id="paint0_linear_328_470" x1="87" y1="2" x2="87" y2="31" gradientUnits="userSpaceOnUse">
<stop stop-color="white"/>
<stop offset="1" stop-color="#999999"/>
</linearGradient>
</defs>
</svg>
